<svg width="24" height="25" viewBox="0 0 24 25" fill="none" xmlns="http://www.w3.org/2000/svg">
<g clip-path="url(#clip0_1_1050)">
<path d="M11.9998 1.83325C9.92328 1.83499 7.93181 2.65838 6.46036 4.12358C4.9889 5.58879 4.15705 7.57674 4.14648 9.65325C4.14648 12.7666 5.89315 15.3733 7.17315 17.2733L7.40648 17.6199C8.68 19.4657 10.0462 21.2457 11.4998 22.9533L12.0065 23.5466L12.5132 22.9533C13.9666 21.2456 15.3328 19.4655 16.6065 17.6199L16.8398 17.2666C18.1132 15.3666 19.8598 12.7666 19.8598 9.65325C19.8492 7.57559 19.0165 5.58663 17.5436 4.12123C16.0707 2.65584 14.0775 1.83323 11.9998 1.83325ZM11.9998 13.1666C11.1349 13.1666 10.2893 12.9101 9.57012 12.4295C8.85093 11.949 8.29039 11.266 7.95938 10.4669C7.62838 9.66773 7.54177 8.7884 7.71052 7.94006C7.87926 7.09171 8.29578 6.31246 8.9074 5.70084C9.51903 5.08922 10.2983 4.6727 11.1466 4.50395C11.995 4.33521 12.8743 4.42181 13.6734 4.75282C14.4725 5.08383 15.1556 5.64437 15.6361 6.36356C16.1167 7.08275 16.3732 7.92829 16.3732 8.79325C16.3732 9.95313 15.9124 11.0655 15.0922 11.8857C14.2721 12.7058 13.1597 13.1666 11.9998 13.1666Z" fill="#4EC259"/>
<path d="M11.9997 11.28C13.373 11.28 14.4863 10.1667 14.4863 8.79331C14.4863 7.41996 13.373 6.30664 11.9997 6.30664C10.6263 6.30664 9.51302 7.41996 9.51302 8.79331C9.51302 10.1667 10.6263 11.28 11.9997 11.28Z" fill="#4EC259"/>
</g>
<defs>
<clipPath id="clip0_1_1050">
<rect width="24" height="24" fill="white" transform="translate(0 0.5)"/>
</clipPath>
</defs>
</svg>
